<?xml version="1.0" standalone="no"?>
<!DOCTYPE svg PUBLIC "-//W3C//DTD SVG 20010904//EN"
 "http://www.w3.org/TR/2001/REC-SVG-20010904/DTD/svg10.dtd">
<svg version="1.0" xmlns="http://www.w3.org/2000/svg"
 width="1280.000000pt" height="1280.000000pt" viewBox="0 0 1280.000000 1280.000000"
 preserveAspectRatio="xMidYMid meet">
<metadata>
Created by potrace 1.16, written by Peter Selinger 2001-2019
</metadata>
<g transform="translate(0.000000,1280.000000) scale(0.100000,-0.100000)"
fill="#000000" stroke="none">
<path d="M10150 9573 c-43 -16 -50 -34 -50 -124 l0 -87 -452 -5 c-463 -4 -506
-7 -715 -51 -178 -38 -426 -136 -593 -234 -284 -167 -597 -479 -803 -799 -298
-465 -505 -1034 -780 -2153 -46 -186 -185 -753 -204 -832 -10 -43 -21 -78 -25
-78 -5 0 -8 5 -8 10 0 6 -11 75 -25 153 -51 300 -86 502 -130 762 -25 149 -55
320 -65 380 -10 61 -35 203 -55 317 -19 114 -51 298 -70 410 -20 112 -54 305
-75 430 -100 570 -159 794 -273 1027 -102 211 -250 313 -496 341 -312 37 -754
-117 -1118 -389 -442 -329 -853 -930 -1072 -1563 -157 -456 -231 -953 -218
-1473 4 -183 7 -210 35 -318 37 -141 61 -178 125 -197 57 -15 107 -7 187 31
119 56 240 213 227 293 -5 33 -11 46 -79 181 -43 83 -80 199 -105 321 -33 167
-22 561 23 810 50 278 185 613 368 914 229 377 603 715 851 768 138 30 253 22
332 -24 48 -28 83 -90 83 -149 0 -131 -190 -808 -395 -1405 -344 -1004 -588
-1599 -831 -2021 -239 -418 -455 -668 -724 -837 -161 -101 -371 -96 -517 12
-70 51 -116 118 -149 218 -29 86 -43 103 -74 93 -38 -12 -109 -85 -145 -149
-54 -98 -68 -162 -63 -291 4 -107 6 -115 46 -196 119 -241 322 -361 607 -361
318 0 623 125 858 351 220 212 444 576 600 976 69 176 395 1183 482 1485 7 25
52 171 100 325 47 154 115 372 150 485 35 113 107 354 160 535 53 182 106 360
117 398 11 37 25 67 31 67 14 0 149 -671 187 -930 6 -36 26 -162 45 -280 66
-406 150 -955 196 -1280 107 -762 174 -1074 295 -1369 134 -324 347 -571 609
-703 325 -165 746 -188 1230 -67 320 81 594 211 850 404 87 66 314 286 361
350 16 22 31 42 34 45 4 3 34 43 67 90 72 100 174 270 302 503 123 226 133
240 189 267 26 12 65 31 88 41 58 28 112 84 120 124 9 48 -12 101 -51 131 -28
21 -58 28 -207 49 -95 14 -200 29 -233 35 -33 5 -107 17 -165 25 -58 9 -130
20 -160 25 -174 31 -492 80 -519 80 -41 0 -91 -26 -120 -62 -47 -59 -28 -128
71 -251 l22 -27 -28 -88 c-107 -330 -307 -681 -521 -911 -141 -153 -259 -240
-414 -305 -94 -39 -99 -40 -216 -41 -108 0 -126 3 -183 27 -83 34 -117 59
-175 127 -59 68 -108 161 -147 283 -37 114 -45 191 -31 290 27 194 419 1808
566 2333 207 740 495 1336 804 1667 24 27 51 57 60 69 14 18 190 174 247 219
231 181 461 294 726 355 144 33 334 46 660 45 236 -1 318 -5 318 -13 0 -7 4
-6 10 3 6 9 10 10 10 3 0 -6 -4 -15 -10 -18 -17 -11 -12 -157 6 -183 16 -23
17 -23 250 -21 218 2 234 3 234 20 0 16 -11 19 -77 22 -76 3 -75 3 27 6 58 2
92 6 77 8 -19 3 -27 9 -23 18 3 8 0 16 -7 19 -9 5 -9 7 1 12 14 7 16 44 2 44
-6 0 -9 58 -8 158 l2 157 6 -155 6 -155 1 168 c1 98 -3 165 -8 161 -5 -3 -9 2
-9 10 0 9 5 16 10 16 6 0 10 7 10 16 0 8 -4 12 -10 9 -19 -12 -10 7 13 26 l22
20 -77 -7 c-53 -4 -78 -3 -78 4 0 6 19 13 43 15 23 2 -39 4 -138 5 -99 1 -189
4 -200 7 -11 2 -27 1 -35 -2z m410 -318 c0 -155 -2 -174 -17 -181 -26 -11 -37
-11 -49 1 -17 17 -13 45 8 45 17 0 18 11 18 153 0 85 3 156 6 160 3 3 12 3 20
0 11 -4 14 -39 14 -178z"/>
<path d="M9501 8472 c-11 -9 -78 -109 -148 -222 -265 -423 -545 -805 -880
-1198 -92 -108 -113 -138 -113 -164 0 -18 20 -84 45 -147 52 -137 87 -273 111
-431 14 -97 16 -161 10 -417 l-6 -303 22 -5 c64 -15 1181 -196 1185 -192 2 3
22 65 43 138 46 156 79 244 148 392 55 116 167 307 233 397 22 30 47 66 57 80
9 14 22 31 30 38 34 36 63 82 57 91 -3 6 0 8 8 5 8 -3 18 0 22 7 13 20 13 83
1 98 -9 12 -8 13 3 6 11 -6 13 -4 8 9 -4 11 -3 15 4 11 6 -4 8 -13 5 -20 -2
-7 1 -18 7 -25 9 -10 9 -14 0 -17 -7 -3 -13 -12 -13 -20 0 -23 26 1 38 36 8
23 4 41 -19 97 -17 38 -34 76 -38 85 -13 22 -63 149 -137 339 -42 111 -137
384 -173 500 -23 74 -65 207 -92 295 -27 88 -71 243 -96 345 -26 102 -51 188
-57 192 -14 10 -42 -26 -60 -77 -8 -22 -26 -103 -40 -180 -14 -77 -57 -315
-96 -530 -39 -214 -78 -426 -86 -470 -59 -316 -59 -301 6 -372 65 -72 83 -112
78 -185 -7 -91 -78 -165 -181 -188 -99 -22 -228 44 -277 141 -26 51 -26 130 0
185 23 46 41 62 115 102 27 15 57 41 67 57 21 37 259 1456 251 1498 -7 36 -17
41 -42 19z"/>
</g>
</svg>
