<?xml version="1.0" standalone="no"?>
<!DOCTYPE svg PUBLIC "-//W3C//DTD SVG 20010904//EN"
 "http://www.w3.org/TR/2001/REC-SVG-20010904/DTD/svg10.dtd">
<svg version="1.0" xmlns="http://www.w3.org/2000/svg"
 width="300.000000pt" height="300.000000pt" viewBox="0 0 300.000000 300.000000"
 preserveAspectRatio="xMidYMid meet">
<metadata>
Created by potrace 1.10, written by Peter Selinger 2001-2011
</metadata>
<g transform="translate(0.000000,300.000000) scale(0.100000,-0.100000)"
fill="#000000" stroke="none">
<path d="M2370 2218 l0 -28 -123 0 c-187 0 -285 -36 -392 -144 -119 -119 -181
-258 -266 -595 -49 -194 -59 -252 -39 -221 6 8 15 34 21 57 6 24 14 41 18 39
3 -2 6 9 7 26 1 16 7 35 13 41 10 9 11 1 6 -38 -4 -27 -10 -54 -13 -60 -7 -12
-8 -14 -20 -80 -37 -197 -37 -190 -17 -241 22 -60 41 -83 82 -100 72 -31 140
-8 218 71 62 62 125 180 134 249 l6 51 70 -2 c177 -7 215 -22 163 -66 -14 -12
-47 -59 -74 -105 -104 -179 -238 -266 -440 -288 -111 -12 -218 38 -272 124
-40 65 -73 193 -97 377 -6 51 -30 190 -67 395 -21 122 -43 190 -61 190 -6 0
-19 -7 -29 -17 -17 -15 -18 -14 -12 30 4 25 4 57 0 72 -9 35 -63 58 -117 50
-55 -8 -49 9 14 38 137 64 224 50 264 -43 36 -86 50 -151 123 -585 10 -60 26
-128 35 -150 l15 -40 -5 55 c-12 109 -105 629 -125 693 -11 35 -30 77 -42 92
-44 57 -124 69 -223 35 -156 -54 -295 -202 -374 -400 -68 -172 -89 -446 -37
-498 14 -15 19 -14 51 1 53 25 64 57 36 111 -28 57 -36 151 -22 246 33 212
227 446 345 416 44 -11 48 -34 20 -137 -49 -186 -169 -518 -232 -644 -93 -187
-204 -293 -288 -277 -26 5 -74 55 -74 78 0 32 -32 11 -52 -33 -17 -39 -19 -52
-9 -82 22 -76 97 -114 192 -100 106 16 189 86 256 215 43 82 119 309 218 644
31 107 59 201 61 209 3 8 7 12 9 9 8 -8 43 -207 86 -492 43 -292 59 -365 96
-438 35 -72 76 -112 144 -143 58 -26 68 -27 163 -22 218 11 359 105 477 317
32 58 53 83 77 94 35 17 40 42 12 57 -24 12 -298 52 -315 45 -20 -7 -19 -35 1
-57 14 -16 12 -24 -20 -95 -79 -170 -186 -259 -280 -233 -41 11 -71 49 -87
110 -11 41 -7 64 56 319 98 399 152 541 246 655 48 58 126 120 185 146 52 24
165 41 240 37 56 -3 59 -4 62 -31 l3 -28 72 3 72 3 0 69 0 69 -73 1 -72 1 0
-27z m116 -33 c8 -34 -11 -55 -51 -55 -23 0 -35 6 -45 25 -18 34 1 55 51 55
33 0 40 -4 45 -25z m-1731 -835 c24 -64 25 -104 1 -108 -27 -6 -31 8 -35 95
-3 85 6 89 34 13z m250 -72 c-13 -68 -59 -196 -93 -261 -70 -135 -153 -202
-259 -206 -63 -2 -103 20 -123 69 -19 47 -2 56 50 26 49 -28 90 -27 149 4 34
17 50 32 117 112 28 33 80 124 124 215 19 40 36 72 38 73 2 0 1 -15 -3 -32z"/>
<path d="M2163 1892 c-34 -53 -94 -137 -134 -186 l-72 -89 19 -51 c14 -38 19
-78 19 -153 l0 -102 70 -11 c39 -6 102 -17 142 -24 l72 -13 16 51 c24 72 57
134 103 190 l39 50 -20 45 c-30 67 -107 299 -114 344 -3 20 -9 40 -14 43 -10
6 -12 -2 -49 -205 -30 -163 -30 -163 -10 -188 15 -19 17 -30 10 -44 -17 -30
-46 -42 -72 -28 -46 24 -51 63 -13 94 23 18 29 39 55 193 34 199 32 182 23
182 -5 0 -36 -44 -70 -98z m167 -134 c17 -46 40 -104 50 -130 27 -63 26 -73
-14 -133 -19 -28 -51 -86 -71 -128 -22 -47 -43 -77 -52 -77 -33 0 -192 42
-201 53 -5 7 -12 55 -15 107 -4 52 -11 110 -18 128 -10 29 -8 36 17 68 16 19
48 61 71 92 49 66 75 94 81 87 3 -2 -1 -41 -8 -85 -9 -58 -19 -90 -36 -110
-43 -50 -28 -111 32 -130 32 -11 39 -10 63 8 22 16 26 26 23 63 -1 24 -2 59
-3 77 0 44 32 192 42 192 4 0 22 -37 39 -82z"/>
</g>
</svg>
